<svg width="11" height="19" viewBox="0 0 11 19" fill="none" xmlns="http://www.w3.org/2000/svg">
<path d="M10.6907 5.7329C10.6907 10.2837 7.50211 14.8535 6.05031 16.6984C5.68371 17.1642 5.00697 17.1642 4.64036 16.6984C3.18857 14.8535 0 10.2837 0 5.7329C0 3.11899 2.39319 1 5.34534 1C8.29749 1 10.6907 3.11899 10.6907 5.7329Z" fill="#73CCA4"/>
<circle cx="5.34531" cy="5.34531" r="1.41172" fill="white"/>
<path opacity="0.8" d="M8.16641 10.0802C8.16641 11.9009 6.75469 9.61128 5.34297 9.61128C3.93125 9.61128 2.51953 11.9009 2.51953 10.0802C2.51953 8.52092 3.78363 7.25684 5.34297 7.25684C6.90231 7.25684 8.16641 8.52092 8.16641 10.0802Z" fill="white"/>
</svg>
